<?xml version="1.0" encoding="UTF-8" standalone="no"?>
<!-- Created with Inkscape (http://www.inkscape.org/) -->

<svg
   xmlns:dc="http://purl.org/dc/elements/1.1/"
   xmlns:cc="http://creativecommons.org/ns#"
   xmlns:rdf="http://www.w3.org/1999/02/22-rdf-syntax-ns#"
   xmlns:svg="http://www.w3.org/2000/svg"
   xmlns="http://www.w3.org/2000/svg"
   xmlns:sodipodi="http://sodipodi.sourceforge.net/DTD/sodipodi-0.dtd"
   xmlns:inkscape="http://www.inkscape.org/namespaces/inkscape"
   width="16"
   height="16"
   viewBox="0 0 16 16"
   id="svg2"
   version="1.1"
   inkscape:version="0.91 r13725"
   sodipodi:docname="bs-inserttemplate-16.svg"
   inkscape:export-filename="/_w/www/bs/master/extensions/BlueSpiceInsertTemplate/resources/images/bs-inserttemplate-16.png"
   inkscape:export-xdpi="90"
   inkscape:export-ydpi="90">
  <defs
     id="defs4" />
  <sodipodi:namedview
     id="base"
     pagecolor="#ffffff"
     bordercolor="#666666"
     borderopacity="1.0"
     inkscape:pageopacity="0.0"
     inkscape:pageshadow="2"
     inkscape:zoom="20.307223"
     inkscape:cx="4.9830896"
     inkscape:cy="7.8293107"
     inkscape:document-units="px"
     inkscape:current-layer="text4257"
     showgrid="false"
     units="px"
     inkscape:window-width="1871"
     inkscape:window-height="1056"
     inkscape:window-x="1649"
     inkscape:window-y="24"
     inkscape:window-maximized="1"
     inkscape:snap-text-baseline="true" />
  <metadata
     id="metadata7">
    <rdf:RDF>
      <cc:Work
         rdf:about="">
        <dc:format>image/svg+xml</dc:format>
        <dc:type
           rdf:resource="http://purl.org/dc/dcmitype/StillImage" />
        <dc:title></dc:title>
      </cc:Work>
    </rdf:RDF>
  </metadata>
  <g
     inkscape:label="Layer 1"
     inkscape:groupmode="layer"
     id="layer1"
     transform="translate(0,-1036.3622)">
    <g
       transform="scale(0.89129682,1.1219607)"
       style="font-style:normal;font-weight:normal;font-size:65.13492584px;line-height:125%;font-family:sans-serif;letter-spacing:0px;word-spacing:0px;fill:#000000;fill-opacity:1;stroke:none;stroke-width:1px;stroke-linecap:butt;stroke-linejoin:miter;stroke-opacity:1"
       id="text4257">
      <g
         transform="scale(0.92696579,1.0787885)"
         style="font-style:normal;font-weight:normal;font-size:11.52979946px;line-height:125%;font-family:sans-serif;letter-spacing:0px;word-spacing:0px;fill:#000000;fill-opacity:1;stroke:none;stroke-width:1px;stroke-linecap:butt;stroke-linejoin:miter;stroke-opacity:1"
         id="text4270">
        <path
           d="m 3.6924353,867.96116 0.887799,0 0,-0.89933 -0.4727242,0 c -0.9569781,0 -1.1760454,-0.16142 -1.1760454,-0.80709 0,-0.62261 0.057649,-1.17605 0.057649,-1.87937 0,-0.87627 -0.3343659,-1.21063 -1.1529858,-1.34899 l 0,-0.0461 c 0.8186199,-0.13836 1.1529858,-0.47273 1.1529858,-1.349 0,-0.68026 -0.057649,-1.26828 -0.057649,-1.87936 0,-0.64567 0.2190673,-0.80709 1.1760454,-0.80709 l 0.4727242,0 0,-0.89933 -0.887799,0 c -1.4758218,0 -2.1445535,0.39201 -2.1445535,1.63724 0,0.80709 0.1152985,1.25675 0.1152985,1.9716 0,0.40355 -0.3343658,0.83015 -1.57959047,0.85321 l 0,0.99157 c 1.24522467,0.0231 1.57959047,0.44967 1.57959047,0.85321 0,0.72638 -0.1152985,1.15299 -0.1152985,1.97161 0,1.24522 0.6687317,1.63724 2.1445535,1.63724 z"
           style="font-style:normal;font-variant:normal;font-weight:bold;font-stretch:normal;font-size:11.52985764px;line-height:125%;font-family:'Source Code Pro';-inkscape-font-specification:'Source Code Pro Bold';text-align:start;letter-spacing:-3.20528436px;writing-mode:lr-tb;text-anchor:start"
           id="path4275" />
        <path
           d="m 7.4005616,867.96116 0.887799,0 0,-0.89933 -0.4727241,0 c -0.9569782,0 -1.1760455,-0.16142 -1.1760455,-0.80709 0,-0.62261 0.057649,-1.17605 0.057649,-1.87937 0,-0.87627 -0.3343659,-1.21063 -1.1529858,-1.34899 l 0,-0.0461 c 0.8186199,-0.13836 1.1529858,-0.47273 1.1529858,-1.349 0,-0.68026 -0.057649,-1.26828 -0.057649,-1.87936 0,-0.64567 0.2190673,-0.80709 1.1760455,-0.80709 l 0.4727241,0 0,-0.89933 -0.887799,0 c -1.4758218,0 -2.1445535,0.39201 -2.1445535,1.63724 0,0.80709 0.1152985,1.25675 0.1152985,1.9716 0,0.40355 -0.3343658,0.83015 -1.5795905,0.85321 l 0,0.99157 c 1.2452247,0.0231 1.5795905,0.44967 1.5795905,0.85321 0,0.72638 -0.1152985,1.15299 -0.1152985,1.97161 0,1.24522 0.6687317,1.63724 2.1445535,1.63724 z"
           style="font-style:normal;font-variant:normal;font-weight:bold;font-stretch:normal;font-size:11.52985764px;line-height:125%;font-family:'Source Code Pro';-inkscape-font-specification:'Source Code Pro Bold';text-align:start;letter-spacing:-3.20528436px;writing-mode:lr-tb;text-anchor:start"
           id="path4277" />
        <path
           d="m 11.196439,867.96116 0.887799,0 c 1.475822,0 2.144554,-0.39202 2.144554,-1.63724 0,-0.81862 -0.126829,-1.24523 -0.126829,-1.97161 0,-0.40354 0.334366,-0.83015 1.591121,-0.85321 l 0,-0.99157 c -1.256755,-0.0231 -1.591121,-0.44966 -1.591121,-0.85321 0,-0.71485 0.126829,-1.16451 0.126829,-1.9716 0,-1.24523 -0.668732,-1.63724 -2.144554,-1.63724 l -0.887799,0 0,0.89933 0.472724,0 c 0.945449,0 1.164516,0.16142 1.164516,0.80709 0,0.61108 -0.04612,1.1991 -0.04612,1.87936 0,0.87627 0.322837,1.21064 1.152986,1.349 l 0,0.0461 c -0.830149,0.13836 -1.152986,0.47272 -1.152986,1.34899 0,0.70332 0.04612,1.25676 0.04612,1.87937 0,0.64567 -0.219067,0.80709 -1.164516,0.80709 l -0.472724,0 0,0.89933 z"
           style="font-style:normal;font-variant:normal;font-weight:bold;font-stretch:normal;font-size:11.52985764px;line-height:125%;font-family:'Source Code Pro';-inkscape-font-specification:'Source Code Pro Bold';text-align:start;letter-spacing:-3.20528436px;writing-mode:lr-tb;text-anchor:start"
           id="path4279" />
        <path
           d="m 14.904565,867.96116 0.887799,0 c 1.475822,0 2.144554,-0.39202 2.144554,-1.63724 0,-0.81862 -0.126829,-1.24523 -0.126829,-1.97161 0,-0.40354 0.334366,-0.83015 1.591121,-0.85321 l 0,-0.99157 c -1.256755,-0.0231 -1.591121,-0.44966 -1.591121,-0.85321 0,-0.71485 0.126829,-1.16451 0.126829,-1.9716 0,-1.24523 -0.668732,-1.63724 -2.144554,-1.63724 l -0.887799,0 0,0.89933 0.472724,0 c 0.945449,0 1.164516,0.16142 1.164516,0.80709 0,0.61108 -0.04612,1.1991 -0.04612,1.87936 0,0.87627 0.322836,1.21064 1.152985,1.349 l 0,0.0461 c -0.830149,0.13836 -1.152985,0.47272 -1.152985,1.34899 0,0.70332 0.04612,1.25676 0.04612,1.87937 0,0.64567 -0.219067,0.80709 -1.164516,0.80709 l -0.472724,0 0,0.89933 z"
           style="font-style:normal;font-variant:normal;font-weight:bold;font-stretch:normal;font-size:11.52985764px;line-height:125%;font-family:'Source Code Pro';-inkscape-font-specification:'Source Code Pro Bold';text-align:start;letter-spacing:-3.20528436px;writing-mode:lr-tb;text-anchor:start"
           id="path4281" />
      </g>
    </g>
  </g>
</svg>
